<svg xmlns="http://www.w3.org/2000/svg" viewBox="0 0 448.74 90"><defs><style>.a{fill:#222;}</style></defs><title>header_logo</title><rect class="a" x="432.65" y="24.08" width="15.28" height="65.42"/><path class="a" d="M268.9,76.88c-12.83,0-20.35-8-20.35-19.12,0-10.92,5.78-20.09,19.32-20.09A46,46,0,0,1,288,42.48V28.19A52.93,52.93,0,0,0,267.57,24c-20.79,0-34,14.33-34,33.73S248,90,268.67,90a55.72,55.72,0,0,0,20.76-4.13V71.93S279.51,76.88,268.9,76.88Z"/><path class="a" d="M69.76,24.07c-9,0-14.73,3.23-20.62,10.15-5.57-6.65-12.17-10.15-21-10.15C11.47,24.07,0,36.63,0,53.29V89.5H15.05V51.81c0-8,4.85-14,13.08-14s13.6,6,13.6,14V89.5H56.52V51.81c0-8,5-14,13.24-14s13.75,6,13.75,14V89.5H98.57V53.29C98.57,36.63,86.5,24.07,69.76,24.07Z"/><circle class="a" cx="440.29" cy="8.45" r="8.45"/><path class="a" d="M334.57,24.08c-19.23,0-33.2,13.84-33.2,32.91,0,19.38,13.09,32.91,31.81,32.91,9,0,16.63-5.19,19-11.08V89.5h15V57C367.17,37,354.56,24.08,334.57,24.08Zm-.14,52.62c-11,0-17.91-7.55-17.91-19.71,0-11.24,7.71-19.71,17.91-19.71C345.31,37.28,352,45,352,57,352,66.55,346.06,76.7,334.43,76.7Z"/><path class="a" d="M218.19,37.78c-8.23,0-13.09,6.84-13.09,15.94V89.5h-15V53.29c0-16.66,11.47-29.22,28.14-29.22h5.43V37.73Z"/><path class="a" d="M411.7,37.78c-8.23,0-13.09,6.84-13.09,15.94V89.5h-15V53.29c0-16.66,11.47-29.22,28.13-29.22h5.43V37.73Z"/><path class="a" d="M145,24c-20.31,0-32.45,16.3-32.45,33.12,0,20.55,14.75,32.77,35.07,32.77a72.45,72.45,0,0,0,23.82-4.18V72.53s-12,5-23.1,5c-11.3,0-19.17-5-20.62-15.08h45.76a53.25,53.25,0,0,0,.45-7.24C174,37,160.25,24,145,24ZM127.88,50.5c2.17-11.06,10.4-13.92,16.74-13.92,6.85,0,15,4.37,16.23,13.92Z"/></svg>